<svg xmlns="http://www.w3.org/2000/svg" viewBox="0 0 200 284" fill="none">
  <path d="M166.862 90.772c-11.05 3.28-19.379 10.7-25.479 18.758-1.31 1.73-4.04.43-3.52-1.689 11.68-48.028-3.75-87.945-51.847-107.594C83.576-.753 81.036 1.437 81.676 3.997c21.879 87.845-70.147 80.435-58.517 180.019.2 1.71-1.72 2.88-3.12 1.88-4.36-3.13-9.23-9.66-12.57-14.249-0.98-1.35-3.1-.97-3.55.64C1.26 181.906 0 190.965 0 199.965c0 34.998 17.989 65.806 45.218 83.665 1.56 1.02 3.56-.44 3.03-2.235-1.4-4.7-2.19-9.66-2.25-14.789 0-3.15.2-6.37.69-9.37 1.14-7.539 3.76-14.719 8.16-21.258 15.089-22.649 45.338-44.528 40.508-74.236-.31-1.88 1.91-3.12 3.31-1.83 21.309 19.469 25.529 45.658 22.029 69.146-.3 2.04 2.26 3.13 3.55 1.53 3.26-4.08 7.239-7.66 11.569-10.349 1.08-.67 2.52-.16 2.93 1.04 2.41 7.009 5.99 13.589 9.37 20.168 4.039 7.91 6.189 16.939 5.849 26.499-.17 4.649-.94 9.149-2.23 13.429-.55 1.81 1.43 3.32 3.02 2.28C182.001 265.801 200 234.993 200 199.975c0-12.169-2.13-24.099-6.16-35.278-8.449-23.449-29.888-41.057-24.468-71.616.26-1.46-1.09-2.73-2.51-2.31z" fill="#FA5D19"/>
</svg>
